<?xml version="1.0" standalone="no"?>
<!DOCTYPE svg PUBLIC "-//W3C//DTD SVG 20010904//EN"
 "http://www.w3.org/TR/2001/REC-SVG-20010904/DTD/svg10.dtd">
<svg version="1.0" xmlns="http://www.w3.org/2000/svg"
 width="355.000000pt" height="355.000000pt" viewBox="0 0 355.000000 355.000000"
 preserveAspectRatio="xMidYMid meet">
<metadata>
Created by potrace 1.11, written by Peter Selinger 2001-2013
</metadata>
<g transform="translate(0.000000,355.000000) scale(0.100000,-0.100000)"
fill="#000000" stroke="none">
<path d="M1309 2633 c-13 -16 -12 -17 4 -4 9 7 17 15 17 17 0 8 -8 3 -21 -13z"/>
<path d="M1180 2415 c-118 -129 -239 -261 -268 -293 -29 -31 -67 -75 -84 -97
l-31 -40 30 30 c17 17 120 127 228 245 109 118 226 245 259 281 92 100 100
109 90 109 -5 0 -106 -106 -224 -235z"/>
<path d="M1359 2553 c-52 -54 -193 -205 -313 -335 -120 -131 -222 -238 -225
-238 -21 1 -50 14 -45 21 3 5 -2 6 -10 3 -8 -3 -17 -12 -20 -20 -3 -9 -1 -12
4 -9 12 8 45 -23 36 -33 -4 -3 -10 -2 -14 3 -7 10 -48 35 -57 35 -3 0 -5 -20
-5 -44 0 -57 -16 -70 -74 -62 l-44 7 -12 -51 c-13 -53 -11 -60 12 -64 24 -4
58 -27 57 -39 0 -9 -2 -9 -6 1 -2 6 -20 12 -39 12 -27 0 -34 -4 -34 -19 0 -11
-3 -27 -7 -37 -4 -12 -3 -15 5 -10 26 16 10 -22 -25 -59 -45 -50 -82 -91 -257
-284 -77 -84 -131 -148 -120 -140 10 7 57 54 104 103 216 233 262 278 273 267
8 -8 1 -22 -24 -49 -43 -46 -144 -155 -315 -337 -181 -195 -204 -221 -204
-235 0 -7 37 27 83 76 45 49 159 170 252 269 94 99 187 197 206 218 30 32 38
35 52 25 15 -12 -9 -40 -201 -243 -119 -126 -249 -263 -289 -305 -53 -54 -68
-76 -56 -79 17 -3 19 -1 303 298 262 275 304 317 320 327 8 5 20 18 26 29 6
11 22 22 35 23 19 3 22 1 12 -9 -7 -7 -13 -23 -13 -35 0 -13 -10 -31 -22 -41
-13 -10 -41 -38 -62 -63 -21 -25 -141 -150 -265 -279 -124 -128 -227 -237
-229 -242 -9 -22 48 -7 68 18 11 15 123 132 248 261 125 128 243 251 263 273
19 21 43 39 52 39 9 0 17 5 17 11 0 5 4 8 9 5 5 -4 7 4 4 16 -4 18 -2 20 6 8
8 -12 12 -9 20 13 6 15 16 27 23 27 9 0 9 -3 0 -12 -15 -15 -16 -54 -2 -63 17
-10 12 -18 -40 -73 -30 -32 -48 -58 -43 -65 4 -7 -2 -5 -13 3 -10 8 -16 10
-12 6 5 -5 -66 -84 -157 -175 -212 -214 -285 -290 -285 -296 0 -15 62 -2 81
18 l21 22 -6 -25 c-4 -15 2 -9 15 15 25 47 109 136 121 129 4 -3 8 0 8 6 0 14
111 132 118 125 3 -2 -1 -11 -8 -20 -7 -9 -11 -18 -8 -21 3 -2 15 15 26 38 11
24 46 68 78 99 33 31 87 86 122 122 34 36 62 64 62 63 0 -2 -14 -41 -31 -87
-16 -46 -39 -108 -49 -138 -22 -60 -50 -97 -134 -171 l-29 -25 12 23 c7 13 11
26 9 28 -3 2 -15 -17 -27 -44 -13 -26 -48 -69 -78 -97 l-54 -49 20 53 c12 29
28 66 37 83 8 16 14 32 11 34 -3 4 -87 -170 -87 -181 0 -3 30 -5 68 -4 l67 0
39 52 c41 53 59 52 32 -2 -17 -33 -20 -51 -8 -51 4 0 16 28 26 62 16 53 30 74
90 136 39 40 72 69 74 64 1 -5 -15 -65 -38 -132 -44 -135 -44 -134 -31 -125 5
3 17 31 26 63 59 205 76 237 179 332 55 51 55 53 16 -80 -12 -41 -28 -100 -36
-130 -9 -30 -22 -79 -30 -109 -8 -30 -20 -61 -26 -68 -9 -11 76 -13 471 -13
469 0 481 0 481 19 0 12 -7 20 -17 20 -39 1 -52 5 -47 13 5 7 -10 12 -20 6 -2
-2 -14 6 -27 17 -12 11 -19 15 -16 9 4 -7 1 -14 -7 -17 -8 -3 -16 2 -19 14 -4
14 0 19 13 19 32 0 35 22 5 46 -19 15 -26 28 -23 42 3 10 2 26 -3 34 -6 10 -2
23 11 38 24 28 25 39 5 46 -8 4 -12 10 -9 15 3 5 9 7 13 5 4 -3 7 3 8 13 1 10
-12 25 -28 35 -17 10 -28 20 -25 23 2 3 11 1 18 -3 7 -5 22 -10 33 -11 27 -5
96 -46 132 -80 27 -25 32 -38 39 -103 4 -41 7 -103 5 -137 -2 -59 -1 -63 19
-63 20 0 21 4 16 48 -14 118 -18 202 -9 202 5 0 27 -15 49 -33 21 -18 55 -44
74 -59 19 -15 51 -40 70 -57 19 -17 38 -31 43 -31 4 0 7 -16 7 -35 0 -25 4
-35 16 -35 11 0 14 6 9 21 -6 18 -5 19 13 10 12 -6 24 -16 27 -21 4 -6 65 -10
147 -10 l142 0 -55 41 c-30 22 -60 44 -67 48 -16 9 -131 396 -120 406 3 3 14
-3 25 -12 12 -10 48 -40 81 -68 l61 -49 51 -156 c45 -138 57 -176 59 -202 1
-5 8 -8 17 -8 11 0 14 5 9 18 -10 24 -96 271 -105 304 -8 25 0 21 73 -38 84
-67 90 -75 127 -179 35 -96 39 -105 49 -105 6 0 -4 33 -20 73 -51 120 -50 119
-36 111 51 -31 142 -116 158 -147 22 -41 34 -49 23 -14 -7 22 -7 22 15 3 13
-12 39 -21 67 -22 42 -3 44 -2 32 14 -11 15 -10 15 8 -1 11 -9 27 -17 35 -17
13 0 -88 103 -103 104 -3 1 -36 25 -73 55 -52 42 -72 67 -92 112 -15 33 -28
57 -30 55 -3 -2 5 -23 16 -47 12 -23 20 -44 18 -45 -1 -1 -36 26 -78 61 -69
58 -78 69 -104 138 -16 42 -31 74 -33 72 -3 -2 6 -29 18 -60 12 -31 21 -58 18
-60 -2 -2 -37 24 -77 58 -66 56 -75 68 -97 131 -13 38 -24 71 -24 73 0 2 14 3
31 3 19 0 37 7 45 17 11 15 13 15 14 3 0 -8 8 -24 17 -35 14 -18 15 -19 9 -1
-6 17 -5 17 11 5 72 -56 117 -97 130 -119 8 -14 12 -17 9 -7 -5 16 30 -12 146
-113 9 -8 80 -67 157 -130 80 -66 138 -121 136 -128 -3 -7 0 -10 6 -7 13 9
119 -82 119 -101 0 -9 5 -12 11 -9 5 4 19 -1 29 -10 12 -11 31 -15 56 -13 l38
3 -119 100 c-66 55 -122 102 -125 105 -3 3 -32 28 -65 55 -33 28 -76 65 -95
82 -19 18 -41 31 -48 28 -7 -3 -10 -1 -7 5 8 12 -114 112 -127 104 -6 -4 -8
-2 -4 4 3 6 -20 32 -51 59 -32 26 -71 60 -88 75 l-30 28 26 0 c20 0 28 6 31
24 6 29 -8 56 -27 56 -8 0 -15 8 -14 18 0 10 3 12 6 5 2 -7 9 -13 15 -13 5 0
21 -9 35 -20 14 -11 30 -17 36 -13 5 3 7 1 4 -5 -9 -14 179 -175 194 -166 7 4
9 3 6 -3 -9 -14 82 -95 96 -86 5 3 7 1 4 -4 -9 -14 29 -47 44 -37 7 4 10 3 6
-3 -8 -13 120 -129 139 -127 8 1 12 -2 9 -6 -3 -4 44 -50 103 -101 59 -51 123
-108 142 -127 34 -32 35 -32 38 -11 4 26 -9 39 -197 202 -68 59 -128 104 -134
100 -5 -3 -7 -1 -3 5 8 13 -68 74 -79 64 -5 -4 -5 -2 -2 5 9 14 -51 66 -65 57
-6 -4 -8 -2 -4 4 8 13 -68 74 -79 64 -5 -4 -5 -2 -2 4 8 14 -52 66 -66 57 -6
-3 -7 -1 -3 5 7 12 -63 74 -76 66 -5 -3 -7 -1 -6 4 4 15 -133 133 -146 125 -6
-3 -8 -2 -3 2 4 5 -3 19 -15 32 l-21 23 30 0 c17 0 37 2 45 5 7 3 26 -6 42
-20 16 -13 33 -22 38 -19 4 3 7 1 6 -4 -4 -13 158 -153 167 -144 4 4 5 2 3 -4
-2 -5 33 -41 77 -79 44 -38 71 -58 59 -44 -21 25 -30 36 -63 79 -11 14 -25 25
-33 25 -7 0 -15 5 -16 10 -7 21 -26 36 -38 31 -7 -3 -16 0 -20 6 -4 7 -3 8 4
4 7 -4 12 -3 12 3 0 6 -10 16 -22 22 -13 7 -31 23 -41 36 -10 13 -23 21 -28
18 -5 -4 -9 0 -9 7 0 7 -25 33 -55 58 -49 40 -55 49 -55 82 0 31 3 36 18 31
18 -7 18 -6 -33 52 -10 13 -52 -4 -66 -27 -6 -8 -9 0 -9 24 0 20 5 40 10 43 6
4 8 11 5 16 -4 5 -1 9 4 9 14 0 14 -17 1 -25 -6 -4 -4 -13 7 -23 12 -12 18
-13 21 -4 2 6 12 12 23 12 19 0 25 23 13 54 -8 21 -66 31 -104 18 -16 -6 -32
-7 -34 -3 -6 10 -75 1 -82 -11 -3 -5 -19 7 -36 26 -17 20 -35 33 -41 29 -5 -3
-7 -1 -4 4 4 6 -8 22 -26 36 -17 14 -50 41 -72 60 -22 20 -44 33 -49 30 -5 -3
-6 -2 -3 4 5 9 -198 198 -213 198 -3 0 -26 17 -52 38 -35 28 -48 48 -57 82
-19 76 -15 81 32 39 23 -21 44 -43 47 -50 8 -19 123 -113 132 -108 5 3 7 1 6
-4 -4 -12 190 -184 196 -174 6 10 -32 51 -119 127 -38 33 -83 74 -100 90 -61
58 -125 114 -125 108 0 -15 -87 75 -98 101 -9 22 -11 24 -8 7 l5 -23 -25 23
c-13 12 -26 20 -29 17 -3 -3 9 -18 26 -32 25 -21 34 -39 40 -79 5 -28 7 -52 5
-54 -2 -2 -27 18 -55 44 -44 41 -51 53 -52 88 l-2 40 -6 -40 -6 -40 -23 33
c-20 27 -27 31 -39 21 -11 -10 -14 -10 -11 2 2 7 -6 15 -18 17 -20 3 -22 -2
-26 -63 -4 -64 -5 -67 -58 -120 -30 -30 -55 -53 -56 -52 -1 1 2 31 7 67 5 36
11 90 13 120 l4 55 -12 -51 c-8 -38 -22 -63 -55 -97 -24 -25 -48 -44 -53 -41
-4 3 -8 -1 -8 -8 0 -8 -20 -36 -44 -62 -37 -42 -45 -46 -49 -30 -4 15 -5 14
-6 -5 -1 -17 -35 -57 -108 -130 -60 -59 -164 -166 -232 -239 -110 -117 -125
-130 -137 -115 -10 15 -2 29 66 103 43 47 139 148 214 225 74 77 136 145 136
151 0 6 19 29 43 51 23 21 62 63 86 92 32 38 46 49 52 39 6 -9 9 -8 9 7 0 11
19 39 41 63 22 23 36 42 31 42 -4 0 -19 -11 -32 -25 -12 -13 -27 -22 -31 -19
-5 3 -9 -3 -9 -13 0 -10 -43 -60 -95 -112 -103 -100 -195 -196 -399 -414 -109
-116 -180 -177 -192 -164 -2 1 52 61 118 132 67 72 176 189 243 260 160 172
225 246 225 259 0 7 -96 -88 -175 -174 -33 -36 -119 -128 -191 -205 -72 -77
-146 -157 -164 -177 -29 -34 -67 -53 -58 -29 3 8 164 183 414 451 134 143 210
230 202 230 -2 0 -47 -44 -99 -97z m398 77 c-1 -4 19 -27 45 -51 41 -39 47
-50 52 -96 6 -60 -6 -75 -30 -38 -9 13 -20 22 -25 19 -5 -3 -8 0 -7 8 2 7 -3
12 -10 10 -8 -1 -11 1 -8 6 3 5 -6 19 -19 30 -20 18 -25 31 -25 70 0 36 4 49
14 49 8 0 14 -3 13 -7z m123 -116 c0 6 6 1 14 -10 8 -10 18 -19 23 -19 30 0
58 -56 71 -140 l9 -54 -46 38 c-71 60 -78 71 -85 141 -4 44 -3 60 4 50 5 -8
10 -11 10 -6z m-286 -56 c-5 -46 -12 -68 -28 -83 -24 -22 -28 -52 -7 -47 20 4
6 -136 -15 -159 -9 -10 -13 -23 -8 -30 5 -8 2 -11 -8 -6 -18 6 -38 -10 -32
-27 2 -6 -14 -29 -37 -51 -25 -24 -37 -32 -31 -19 6 12 9 24 6 27 -7 7 25 160
35 167 4 3 24 24 44 46 34 39 36 42 20 55 -10 7 -15 9 -11 5 10 -12 -12 -37
-25 -29 -5 3 -7 1 -4 -4 4 -6 1 -16 -7 -22 -12 -10 -13 -5 -5 30 6 23 8 47 6
53 -3 6 -10 -17 -18 -52 -11 -54 -20 -69 -57 -104 -25 -22 -41 -46 -38 -53 3
-9 0 -12 -8 -9 -8 3 -12 15 -10 27 2 12 -3 6 -12 -13 -9 -19 -15 -35 -13 -35
6 0 -83 -85 -88 -85 -3 0 -3 9 0 20 3 12 1 18 -5 14 -5 -3 -7 -17 -3 -31 3
-14 2 -22 -3 -19 -5 3 -28 -15 -52 -39 -24 -24 -48 -41 -53 -38 -6 3 -7 1 -3
-5 4 -7 2 -12 -3 -12 -6 0 -11 -6 -11 -14 0 -12 -73 -86 -85 -86 -2 0 -2 8 0
18 3 9 -4 -2 -15 -25 -16 -34 -26 -43 -46 -43 -24 0 -24 0 -9 38 8 20 39 60
68 87 28 28 65 68 82 88 16 22 35 35 43 32 7 -2 10 0 7 5 -4 6 19 36 50 68 46
46 55 52 50 32 -5 -22 -4 -23 5 -7 7 10 9 21 6 24 -12 12 88 133 111 133 7 0
13 5 13 10 0 6 11 22 25 35 13 14 22 25 19 25 -3 0 6 11 18 24 13 12 29 21 36
18 7 -2 12 4 12 14 0 13 85 112 98 114 2 0 0 -28 -4 -62z m115 -57 l-2 -89
-51 -49 -51 -48 50 55 50 55 -52 -49 c-29 -27 -50 -53 -48 -56 3 -4 -5 -16
-16 -26 -21 -19 -21 -19 -16 11 3 17 9 57 12 90 4 33 13 67 21 76 8 9 11 19 7
23 -5 4 -1 6 7 4 8 -1 14 3 13 10 -2 6 2 11 9 10 6 -2 16 7 23 18 12 25 35 54
42 54 2 0 3 -40 2 -89z m56 58 c-3 -3 17 -25 44 -47 40 -34 50 -49 55 -82 3
-22 9 -59 12 -82 6 -39 5 -41 -10 -29 -14 12 -16 12 -10 -4 5 -13 4 -16 -4
-11 -7 4 -12 13 -12 20 0 7 -25 35 -55 62 l-55 49 0 67 c0 60 2 67 19 65 11 0
18 -4 16 -8z m261 -64 c22 -19 43 -35 47 -35 4 0 13 -13 18 -30 6 -16 14 -28
19 -27 12 3 120 -100 112 -108 -4 -5 -2 -5 4 -2 5 3 46 -25 89 -63 44 -37 83
-66 88 -63 4 2 6 0 5 -6 -2 -6 11 -22 27 -35 23 -20 26 -25 13 -26 -14 0 -18
-9 -18 -37 0 -21 -4 -33 -8 -28 -4 6 -38 37 -77 70 -38 33 -86 74 -105 90 -19
17 -52 46 -72 66 -21 20 -39 32 -40 27 -2 -5 -28 12 -58 38 -48 40 -56 53 -66
99 -6 29 -14 65 -18 79 -3 14 -5 26 -2 26 2 0 21 -16 42 -35z m-6 -217 c7 -46
14 -93 16 -106 l2 -22 -27 19 c-29 21 -56 50 -56 60 0 3 -4 5 -11 3 -6 -1 -19
8 -30 20 -12 13 -13 18 -4 13 12 -7 12 -5 -1 11 -17 20 -36 155 -24 174 4 6
31 -10 64 -39 l57 -50 14 -83z m-321 -21 l2 -112 -36 -35 c-19 -18 -35 -28
-35 -21 0 8 -10 11 -27 9 -22 -2 -30 -10 -39 -43 l-11 -40 -7 30 c-4 17 0 61
8 99 12 60 20 74 65 120 49 49 65 76 39 60 -7 -4 -2 5 11 19 14 15 25 27 27
27 1 0 2 -51 3 -113z m81 53 c49 -41 67 -50 54 -27 -4 7 -3 9 2 4 5 -5 8 -12
7 -15 -1 -4 7 -17 18 -28 21 -23 38 -110 39 -199 0 -59 -19 -50 -27 14 -5 37
-8 41 -34 41 -16 0 -29 -6 -31 -15 -2 -10 -15 -4 -46 23 l-43 37 2 103 c1 56
4 102 7 102 2 0 26 -18 52 -40z m332 -52 c-1 -5 2 -7 7 -4 9 6 23 -8 28 -29 1
-5 9 -34 17 -62 9 -33 12 -63 7 -80 -4 -16 -6 -35 -3 -43 2 -9 -2 -7 -11 5 -8
11 -13 23 -11 26 2 4 -13 19 -33 35 -20 15 -33 22 -28 15 5 -9 3 -12 -6 -9 -8
3 -14 11 -15 19 0 8 -3 21 -7 29 -12 34 -29 140 -24 153 3 8 0 20 -6 28 -7 7
11 -7 38 -30 28 -24 49 -48 47 -53z m-671 49 c-6 -8 -8 -16 -5 -20 6 -6 -12
-106 -27 -147 -11 -30 -58 -52 -82 -39 -12 7 -13 16 -6 44 6 19 7 40 3 47 -4
6 -3 8 3 5 5 -3 30 15 54 41 24 25 33 38 19 27 -16 -12 -12 -6 9 18 33 35 56
52 32 24z m199 0 c0 -2 -10 -12 -22 -23 l-23 -19 19 23 c18 21 26 27 26 19z
m-270 -72 c0 -2 -6 -8 -13 -14 -10 -8 -14 -7 -14 2 0 8 6 14 14 14 7 0 13 -1
13 -2z m679 -121 c2 -2 0 -4 -6 -4 -6 0 -39 27 -74 61 l-64 60 70 -57 c39 -31
72 -59 74 -60z m-509 93 c0 -1 -26 -27 -57 -57 l-58 -55 55 58 c50 53 60 62
60 54z m447 -71 c29 -26 30 -31 18 -50 -15 -22 -23 -175 -11 -195 4 -6 2 -11
-3 -11 -6 0 -12 6 -13 13 0 6 -2 17 -3 22 -2 6 -3 49 -4 98 l-1 87 -30 0 c-25
0 -30 4 -30 24 0 13 -3 39 -6 57 l-7 34 29 -25 c16 -13 43 -38 61 -54z m266
10 c7 4 9 3 4 -1 -4 -5 0 -17 10 -27 15 -17 14 -18 -30 -18 -43 0 -47 2 -53
28 -3 15 -10 40 -15 56 l-9 28 41 -36 c23 -21 45 -34 52 -30z m-717 -11 c-6
-30 -11 -35 -36 -35 l-29 0 20 -57 c25 -72 24 -85 -5 -112 l-25 -23 -3 93 -3
94 39 42 c22 24 42 41 44 38 2 -2 1 -20 -2 -40z m-233 -15 c-4 -5 -21 -12 -38
-16 l-30 -7 35 31 c28 25 36 28 38 16 2 -9 0 -20 -5 -24z m1021 -21 c-3 -5
-10 -7 -15 -3 -5 3 -7 10 -3 15 3 5 10 7 15 3 5 -3 7 -10 3 -15z m280 -48 c-6
-28 -9 -30 -21 -18 -11 10 -11 20 -3 42 14 38 32 20 24 -24z m-1375 -56 c-2
-60 -6 -78 -22 -92 -10 -10 -22 -17 -26 -15 -3 1 -6 -1 -6 -5 0 -15 -16 -33
-24 -29 -13 8 60 216 75 216 3 0 4 -34 3 -75z m1173 21 c6 4 8 3 5 -3 -4 -6 0
-16 8 -23 10 -8 15 -31 15 -70 0 -53 2 -58 25 -62 30 -6 35 -2 35 33 0 21 4
27 15 23 8 -3 17 -14 20 -24 7 -22 62 -53 79 -43 6 3 8 2 3 -2 -4 -5 4 -21 19
-36 16 -17 22 -29 15 -33 -6 -4 -12 -19 -12 -34 -1 -27 -1 -27 -8 3 -5 26 -11
30 -44 33 -30 3 -37 0 -38 -15 0 -16 -2 -15 -16 5 -8 12 -20 22 -25 22 -20 0
-98 73 -98 92 0 18 -12 27 -42 31 -7 2 -23 10 -36 18 -21 15 -21 18 -8 44 9
17 12 41 8 64 l-5 36 37 -33 c20 -18 42 -29 48 -26z m106 13 c-13 -38 -18 -37
-18 6 0 26 4 33 14 29 11 -4 12 -12 4 -35z m-1200 0 c-1 -17 -5 -32 -9 -34 -5
-4 -6 33 -1 58 5 20 12 3 10 -24z m771 -86 c1 -32 -3 -43 -14 -43 -12 0 -15
15 -14 83 1 82 1 82 14 42 8 -22 14 -59 14 -82z m181 81 c0 -31 -2 -35 -15
-24 -8 7 -15 23 -15 36 0 15 6 24 15 24 11 0 15 -11 15 -36z m-1450 -28 c-8
-8 -26 -17 -40 -21 -25 -7 -25 -7 5 23 19 19 34 27 40 21 6 -6 4 -14 -5 -23z
m370 7 c-41 -134 -54 -160 -108 -215 -30 -31 -59 -55 -64 -52 -4 3 -8 -1 -8
-8 0 -8 -15 -29 -33 -46 -30 -29 -35 -31 -47 -17 -11 13 -9 15 15 15 24 0 31
9 67 90 23 49 45 87 49 84 4 -2 10 5 14 16 4 14 15 20 36 20 22 0 29 5 29 20
0 11 -7 23 -16 27 -12 4 -7 15 27 49 24 24 44 44 45 44 2 0 -1 -12 -6 -27z
m989 3 c-1 -6 -1 -41 0 -78 l1 -68 30 0 c22 0 30 5 31 18 1 9 7 -1 14 -23 9
-25 12 -60 8 -93 -5 -48 -3 -54 16 -59 11 -3 21 -9 21 -15 0 -5 -9 -4 -20 2
-16 9 -20 8 -20 -5 0 -11 -14 -5 -50 22 -35 26 -46 40 -40 49 12 13 -12 38
-25 26 -5 -4 -5 -2 -1 5 3 6 2 14 -4 18 -13 8 -13 52 0 60 6 3 10 35 10 71 0
41 4 64 11 64 8 0 7 5 -1 15 -11 13 -10 14 4 9 9 -3 16 -11 15 -18z m-784
-174 c-17 -20 -21 -21 -23 -7 -2 9 1 22 7 28 5 7 10 22 10 32 -1 11 3 45 8 75
l8 55 5 -80 c4 -70 2 -83 -15 -103z m1218 96 c3 -29 1 -45 -5 -42 -16 10 -49
97 -43 113 11 27 42 -20 48 -71z m-1884 36 c-13 -14 -25 -20 -27 -14 -5 15 17
40 36 40 12 0 10 -6 -9 -26z m121 1 c0 -8 -4 -17 -10 -20 -6 -4 -10 5 -10 20
0 15 4 24 10 20 6 -3 10 -12 10 -20z m831 -5 c25 -14 24 -28 -3 -32 -17 -2
-22 -9 -21 -26 2 -13 -1 -21 -6 -18 -5 3 -12 -1 -15 -10 -4 -11 -1 -14 12 -10
9 3 24 1 32 -4 15 -9 -5 -14 -62 -13 -10 0 -18 -6 -18 -14 0 -7 -6 -13 -12
-13 -8 0 -9 -3 -3 -8 6 -4 11 -13 13 -20 2 -10 -2 -10 -18 -2 -16 9 -22 8 -27
-5 -9 -26 -20 0 -15 40 4 32 7 35 37 35 29 0 32 2 27 26 -4 20 2 33 24 55 34
33 30 32 55 19z m-340 -100 c22 0 23 -6 9 -46 -10 -29 -50 -64 -50 -44 0 5 -9
10 -19 10 -18 0 -19 -3 -9 -31 10 -29 8 -34 -35 -77 l-46 -45 9 34 c4 19 17
68 29 109 11 41 21 78 21 83 0 4 11 7 25 7 22 0 25 4 25 38 0 56 14 62 18 8 3
-38 7 -46 23 -46z m479 74 c0 -8 -4 -12 -10 -9 -5 3 -10 10 -10 16 0 5 5 9 10
9 6 0 10 -7 10 -16z m-1091 -50 c1 -7 -18 -14 -41 -16 -54 -6 -60 -1 -20 13
17 6 34 20 38 32 7 22 7 22 15 2 4 -11 8 -25 8 -31z m139 4 c-5 -13 -48 -19
-48 -6 0 4 7 8 15 8 8 0 14 3 14 8 -1 4 -1 14 0 22 1 12 4 11 12 -3 6 -10 9
-23 7 -29z m1468 20 l19 -23 -25 20 c-14 11 -27 21 -29 22 -2 2 0 3 6 3 5 0
18 -10 29 -22z m2 -57 c56 -49 62 -58 61 -90 -2 -31 -3 -32 -6 -8 -3 19 -10
27 -24 27 -17 0 -19 -7 -19 -65 0 -58 2 -65 20 -65 15 0 20 7 21 28 l2 27 4
-27 c3 -22 10 -28 28 -28 20 0 26 -7 35 -41 6 -23 16 -52 21 -66 l9 -24 -38
28 c-20 15 -53 43 -72 60 -19 18 -37 33 -40 33 -3 0 -4 18 -2 41 4 34 1 41
-17 46 -11 3 -21 9 -21 13 0 5 9 6 21 3 16 -5 20 -2 17 13 -2 10 -14 21 -27
24 -19 4 -27 17 -41 72 -20 77 -21 77 68 -1z m356 48 c-6 -11 -24 -2 -24 11 0
5 7 7 15 4 8 -4 12 -10 9 -15z m-373 -6 c13 -16 12 -17 -3 -4 -10 7 -18 15
-18 17 0 8 8 3 21 -13z m-1546 -13 c-3 -5 -13 -10 -21 -10 -8 0 -14 5 -14 10
0 6 9 10 21 10 11 0 17 -4 14 -10z m165 6 c0 -2 -7 -7 -16 -10 -8 -3 -12 -2
-9 4 6 10 25 14 25 6z m991 -132 c1 -54 3 -119 4 -144 0 -25 4 -50 7 -56 4 -5
-2 -10 -12 -11 -10 -1 -21 5 -24 13 -3 8 -13 14 -21 14 -9 0 -13 5 -10 10 3 6
1 10 -4 10 -6 0 -11 9 -11 20 0 11 -4 20 -10 20 -5 0 -10 5 -10 10 0 6 11 10
25 10 20 0 25 5 25 25 0 16 6 25 15 25 8 0 15 7 15 15 0 8 -7 15 -15 15 -8 0
-15 5 -15 10 0 6 7 10 15 10 8 0 15 7 15 15 0 10 -10 15 -34 15 -40 0 -66 22
-66 56 0 21 5 24 35 24 26 0 35 4 35 17 0 15 2 14 19 -3 15 -17 19 -39 22
-120z m-702 69 c-13 -60 -57 -200 -68 -220 -12 -23 -119 -128 -124 -122 -3 2
14 62 37 133 38 118 47 135 95 188 29 32 57 58 61 58 4 0 4 -17 -1 -37z m789
13 c15 -13 38 -34 52 -45 l25 -22 -39 21 c-50 27 -85 53 -86 63 0 14 20 7 48
-17z m363 7 c13 -16 12 -17 -3 -4 -10 7 -18 15 -18 17 0 8 8 3 21 -13z m30 0
c13 -16 12 -17 -3 -4 -10 7 -18 15 -18 17 0 8 8 3 21 -13z m-301 -6 c0 -4 -6
-5 -12 -1 -7 4 -4 -2 6 -14 30 -35 10 -38 -28 -4 l-34 30 34 -1 c19 -1 34 -5
34 -10z m-115 -25 c18 -12 20 -23 17 -89 l-4 -74 38 3 c27 2 40 8 42 21 4 20
-33 25 -41 5 -3 -7 -5 10 -5 37 0 28 2 44 5 38 2 -7 12 -13 22 -13 26 0 41
-21 41 -57 0 -25 4 -33 18 -33 15 0 21 -14 31 -67 12 -67 35 -182 51 -255 l8
-38 -38 28 c-122 88 -189 145 -194 165 -3 13 -9 56 -12 95 -6 63 -5 72 10 72
9 0 16 7 16 15 0 8 -7 15 -15 15 -8 0 -15 5 -15 10 0 6 7 10 15 10 8 0 15 7
15 15 0 8 -7 15 -15 15 -8 0 -15 5 -15 10 0 6 7 10 15 10 8 0 15 7 15 15 0 9
-9 15 -25 15 -21 0 -25 5 -25 30 0 32 0 32 45 2z m-1301 -21 c-22 -21 -49 -41
-61 -45 -14 -4 -23 -17 -25 -34 -4 -23 -5 -24 -12 -9 -6 12 -3 24 8 36 9 10
13 21 9 25 -5 4 -3 6 2 5 22 -6 55 14 61 37 5 17 13 24 31 24 25 0 24 -1 -13
-39z m116 24 c-7 -8 -26 -15 -42 -15 -26 0 -29 2 -18 15 7 8 26 15 42 15 26 0
29 -2 18 -15z m130 4 c0 -6 -7 -8 -16 -5 -8 3 -12 2 -9 -4 4 -6 -11 -10 -37
-10 -40 1 -42 2 -24 15 23 17 86 20 86 4z m555 -28 c-3 -6 -11 -11 -17 -11 -6
0 -6 6 2 15 14 17 26 13 15 -4z m956 -8 c13 -16 12 -17 -3 -4 -10 7 -18 15
-18 17 0 8 8 3 21 -13z m-1711 -29 c0 -3 -11 -19 -25 -36 l-25 -30 4 34 c3 18
5 34 5 36 2 5 41 2 41 -4z m123 -10 c-6 -16 -83 -20 -83 -5 0 12 18 18 57 19
23 0 30 -4 26 -14z m1584 -36 c-2 -13 -4 -5 -4 17 -1 22 1 32 4 23 2 -10 2
-28 0 -40z m150 20 c-3 -7 -5 -2 -5 12 0 14 2 19 5 13 2 -7 2 -19 0 -25z
m-1657 12 c0 -5 -7 -10 -16 -10 -8 0 -12 5 -9 10 3 6 10 10 16 10 5 0 9 -4 9
-10z m910 0 c0 -5 -2 -10 -4 -10 -3 0 -8 5 -11 10 -3 6 -1 10 4 10 6 0 11 -4
11 -10z m395 -90 c37 -30 71 -63 76 -72 11 -21 6 -23 -13 -5 -7 6 -46 38 -85
70 -40 32 -73 62 -73 68 0 14 19 2 95 -61z m252 33 c-3 -10 -5 -4 -5 12 0 17
2 24 5 18 2 -7 2 -21 0 -30z m-1410 15 c-2 -7 -21 -66 -42 -130 -37 -113 -40
-119 -106 -187 -38 -39 -69 -67 -69 -62 0 4 9 30 19 57 11 27 35 90 54 141 27
72 46 103 84 142 47 49 70 63 60 39z m1591 2 c6 0 12 -8 11 -17 0 -11 -3 -13
-6 -5 -6 15 -43 16 -43 1 0 -8 -5 -8 -15 1 -20 16 -8 33 19 26 11 -3 27 -6 34
-6z m-2029 -33 c6 -8 8 -17 4 -20 -7 -8 -33 11 -33 24 0 13 16 11 29 -4z m755
-24 c12 2 29 8 38 11 12 6 17 2 20 -16 4 -27 -13 -88 -25 -88 -5 0 -5 5 -2 10
3 6 1 10 -4 10 -6 0 -11 -7 -11 -15 0 -16 -17 -50 -39 -77 -7 -10 -11 -27 -8
-38 3 -12 -3 -29 -14 -43 -16 -19 -20 -20 -29 -7 -6 9 -10 10 -10 3 0 -6 5
-15 10 -18 6 -3 10 -16 9 -28 l0 -22 -9 23 c-5 12 -15 22 -22 22 -9 0 -9 -3 2
-11 11 -8 12 -12 3 -16 -7 -2 -13 -11 -13 -18 0 -8 -6 -18 -14 -22 -7 -4 -16
-15 -20 -23 -3 -8 -3 -1 0 15 3 17 10 55 16 85 14 82 16 93 22 120 3 13 8 42
12 64 3 23 12 56 20 74 13 32 15 33 30 17 10 -9 26 -15 38 -12z m864 -57 c45
-37 82 -74 82 -82 0 -7 14 -64 31 -126 17 -62 33 -124 35 -137 3 -14 7 -28 9
-31 9 -14 15 -70 8 -70 -28 0 -182 116 -193 144 -8 22 -38 166 -61 291 -6 33
-13 69 -16 80 -7 23 -14 28 105 -69z m377 34 c10 -11 16 -20 13 -20 -3 0 -13
9 -23 20 -10 11 -16 20 -13 20 3 0 13 -9 23 -20z m-1351 -60 c-8 -36 -23 -108
-34 -160 -11 -52 -24 -110 -29 -127 -5 -18 -7 -33 -3 -33 3 0 -18 -23 -48 -51
-30 -28 -77 -72 -104 -98 -27 -25 -46 -41 -43 -36 5 10 23 72 67 240 49 183
44 174 127 257 42 42 78 76 79 75 1 -1 -4 -31 -12 -67z m1417 3 c13 -16 12
-17 -3 -4 -17 13 -22 21 -14 21 2 0 10 -8 17 -17z m30 0 c13 -16 12 -17 -3 -4
-17 13 -22 21 -14 21 2 0 10 -8 17 -17z m29 -48 c13 -14 21 -25 18 -25 -2 0
-15 11 -28 25 -13 14 -21 25 -18 25 2 0 15 -11 28 -25z m25 5 c10 -11 16 -20
13 -20 -3 0 -13 9 -23 20 -10 11 -16 20 -13 20 3 0 13 -9 23 -20z m-325 -57
c0 -7 -56 35 -71 54 -8 9 5 2 29 -17 23 -18 42 -35 42 -37z m40 10 c0 -8 -38
17 -51 33 -9 11 -2 9 19 -6 17 -13 32 -25 32 -27z m320 -8 c13 -14 21 -25 18
-25 -2 0 -15 11 -28 25 -13 14 -21 25 -18 25 2 0 15 -11 28 -25z m41 -12 c13
-16 12 -17 -3 -4 -17 13 -22 21 -14 21 2 0 10 -8 17 -17z m-326 -11 c-3 -3
-11 0 -18 7 -9 10 -8 11 6 5 10 -3 15 -9 12 -12z m142 -115 c11 -18 -33 14
-82 59 l-50 46 63 -48 c35 -26 66 -52 69 -57z m208 83 c10 -11 16 -20 13 -20
-3 0 -13 9 -23 20 -10 11 -16 20 -13 20 3 0 13 -9 23 -20z m-220 -114 l40 -39
-50 39 c-27 22 -68 56 -90 78 l-40 39 50 -39 c28 -22 68 -56 90 -78z m290 54
c10 -11 16 -20 13 -20 -3 0 -13 9 -23 20 -10 11 -16 20 -13 20 3 0 13 -9 23
-20z m36 -7 c13 -16 12 -17 -3 -4 -10 7 -18 15 -18 17 0 8 8 3 21 -13z m-2071
-6 c0 -2 -19 -21 -42 -42 l-43 -40 40 43 c36 39 45 47 45 39z m2095 -37 c10
-11 16 -20 13 -20 -3 0 -13 9 -23 20 -10 11 -16 20 -13 20 3 0 13 -9 23 -20z
m-165 -116 c0 -11 -149 107 -150 119 0 5 34 -19 75 -53 41 -34 75 -64 75 -66z
m211 99 c13 -16 12 -17 -3 -4 -10 7 -18 15 -18 17 0 8 8 3 21 -13z m-2161 -6
c0 -2 -19 -21 -42 -42 l-43 -40 40 43 c36 39 45 47 45 39z m1832 -30 c7 -7 42
-36 76 -65 35 -28 61 -52 57 -52 -8 0 -142 107 -150 120 -9 14 1 13 17 -3z
m353 -7 c10 -11 16 -20 13 -20 -3 0 -13 9 -23 20 -10 11 -16 20 -13 20 3 0 13
-9 23 -20z m36 -7 c13 -16 12 -17 -3 -4 -10 7 -18 15 -18 17 0 8 8 3 21 -13z
m-2301 4 c0 -1 -24 -25 -52 -52 l-53 -50 50 53 c46 48 55 57 55 49z m2325 -47
c10 -11 16 -20 13 -20 -3 0 -13 9 -23 20 -10 11 -16 20 -13 20 3 0 13 -9 23
-20z m-211 -71 c17 -13 46 -39 65 -58 20 -18 2 -6 -39 27 -42 33 -82 68 -90
78 -11 15 -9 14 10 -2 14 -12 38 -32 54 -45z m281 11 c10 -11 16 -20 13 -20
-3 0 -13 9 -23 20 -10 11 -16 20 -13 20 3 0 13 -9 23 -20z m36 -7 c13 -16 12
-17 -3 -4 -17 13 -22 21 -14 21 2 0 10 -8 17 -17z m-2541 3 c0 -2 -8 -10 -17
-17 -16 -13 -17 -12 -4 4 13 16 21 21 21 13z m2231 -53 l24 -26 -32 23 c-34
25 -39 30 -25 30 5 0 19 -12 33 -27z m330 10 c13 -16 12 -17 -3 -4 -17 13 -22
21 -14 21 2 0 10 -8 17 -17z m-275 -54 c19 -22 19 -22 -3 -8 -13 8 -23 17 -23
21 0 12 6 9 26 -13z"/>
<path d="M1366 2245 c-3 -9 -6 -22 -5 -28 0 -7 5 -1 10 12 5 13 8 26 5 28 -2
2 -6 -3 -10 -12z"/>
<path d="M1459 2083 c-13 -16 -12 -17 4 -4 16 13 21 21 13 21 -2 0 -10 -8 -17
-17z"/>
<path d="M1036 1893 c-6 -14 -5 -15 5 -6 7 7 10 15 7 18 -3 3 -9 -2 -12 -12z"/>
<path d="M2111 2270 c0 -8 4 -24 9 -35 5 -13 9 -14 9 -5 0 8 -4 24 -9 35 -5
13 -9 14 -9 5z"/>
<path d="M1910 2325 c13 -14 26 -25 28 -25 3 0 -5 11 -18 25 -13 14 -26 25
-28 25 -3 0 5 -11 18 -25z"/>
<path d="M1965 2280 c10 -11 20 -20 23 -20 3 0 -3 9 -13 20 -10 11 -20 20 -23
20 -3 0 3 -9 13 -20z"/>
<path d="M2000 2096 c0 -2 8 -10 18 -17 15 -13 16 -12 3 4 -13 16 -21 21 -21
13z"/>
<path d="M1199 1813 c-13 -16 -12 -17 4 -4 9 7 17 15 17 17 0 8 -8 3 -21 -13z"/>
<path d="M2330 1875 c0 -5 5 -17 10 -25 5 -8 10 -10 10 -5 0 6 -5 17 -10 25
-5 8 -10 11 -10 5z"/>
<path d="M2486 1717 c3 -10 9 -15 12 -12 3 3 0 11 -7 18 -10 9 -11 8 -5 -6z"/>
<path d="M1025 1695 c-10 -25 -16 -48 -13 -51 3 -2 12 17 21 43 20 62 14 68
-8 8z"/>
<path d="M2207 1629 c18 -18 35 -31 37 -28 3 3 -12 18 -32 33 l-37 29 32 -34z"/>
<path d="M1487 2620 c-15 -15 -27 -33 -27 -39 0 -7 14 4 31 24 38 43 34 56 -4
15z"/>
<path d="M1541 2634 c0 -11 3 -14 6 -6 3 7 2 16 -1 19 -3 4 -6 -2 -5 -13z"/>
<path d="M1660 2614 c-17 -20 -29 -38 -27 -41 4 -4 77 65 77 74 0 12 -23 -2
-50 -33z"/>
<path d="M1998 2627 c12 -13 22 -29 22 -35 0 -7 4 -11 9 -9 5 1 26 -14 47 -33
99 -89 162 -139 168 -133 3 3 6 0 7 -8 0 -15 59 -66 59 -52 0 5 -16 24 -35 43
-19 19 -35 32 -35 29 0 -3 -50 43 -112 102 -62 59 -116 105 -120 103 -4 -3 -8
0 -8 5 0 6 -5 11 -12 11 -6 0 -2 -10 10 -23z"/>
<path d="M2095 2610 c21 -22 41 -37 44 -35 6 7 -60 75 -73 75 -6 0 7 -18 29
-40z"/>
<path d="M1295 2578 l-40 -43 43 40 c39 36 47 45 39 45 -2 0 -21 -19 -42 -42z"/>
<path d="M2190 2593 c0 -6 8 -17 18 -24 16 -13 16 -13 2 6 -8 11 -16 22 -17
24 -2 2 -3 0 -3 -6z"/>
<path d="M1440 2575 c0 -5 5 -17 10 -25 5 -8 10 -10 10 -5 0 6 -5 17 -10 25
-5 8 -10 11 -10 5z"/>
<path d="M2150 2573 c0 -5 12 -20 26 -34 24 -21 26 -22 16 -3 -13 25 -42 50
-42 37z"/>
<path d="M1511 2504 c0 -11 3 -14 6 -6 3 7 2 16 -1 19 -3 4 -6 -2 -5 -13z"/>
<path d="M1186 2460 c-25 -27 -46 -52 -46 -56 0 -4 1 -5 3 -3 2 2 25 28 52 57
26 28 45 52 43 52 -3 0 -26 -22 -52 -50z"/>
<path d="M2240 2482 c6 -13 14 -21 18 -18 3 4 -2 14 -12 24 -18 16 -18 16 -6
-6z"/>
<path d="M1154 2468 l-19 -23 23 19 c21 18 27 26 19 26 -2 0 -12 -10 -23 -22z"/>
<path d="M2061 2445 c1 -19 18 -51 18 -35 0 8 -4 22 -9 30 -5 8 -9 11 -9 5z"/>
<path d="M1075 2342 l-48 -57 54 52 c29 29 51 55 48 58 -3 2 -27 -21 -54 -53z"/>
<path d="M979 2273 c-13 -16 -12 -17 4 -4 9 7 17 15 17 17 0 8 -8 3 -21 -13z"/>
<path d="M945 2199 c-28 -28 -45 -50 -40 -48 11 4 101 99 93 99 -2 0 -26 -23
-53 -51z"/>
<path d="M2460 2221 c0 -6 4 -13 10 -16 6 -3 7 1 4 9 -7 18 -14 21 -14 7z"/>
<path d="M2396 2192 c-3 -5 11 -25 32 -43 67 -61 77 -65 34 -12 -49 60 -58 67
-66 55z m29 -22 c10 -11 16 -20 13 -20 -3 0 -13 9 -23 20 -10 11 -16 20 -13
20 3 0 13 -9 23 -20z"/>
<path d="M846 2091 l-40 -46 44 42 c24 23 42 44 40 46 -3 2 -23 -17 -44 -42z"/>
<path d="M2536 2065 c4 -8 11 -15 16 -15 6 0 5 6 -2 15 -7 8 -14 15 -16 15 -2
0 -1 -7 2 -15z"/>
<path d="M614 1986 c-17 -6 -42 -19 -55 -28 -20 -15 -22 -19 -9 -27 25 -18 44
-11 74 25 16 19 27 36 25 38 -2 2 -18 -2 -35 -8z"/>
<path d="M647 1952 c-15 -15 -27 -33 -27 -39 0 -22 65 -32 72 -12 6 17 -3 79
-11 79 -4 0 -19 -13 -34 -28z"/>
<path d="M491 1887 c-26 -42 -43 -117 -27 -118 78 -9 82 -7 90 39 3 20 8 48
12 63 4 20 1 27 -21 37 -34 16 -30 17 -54 -21z"/>
<path d="M458 1735 c-8 -8 11 -86 24 -102 11 -13 7 -19 -101 -145 -30 -35 -3
-10 60 54 113 115 115 118 111 157 -4 41 -4 41 -46 41 -24 0 -45 -2 -48 -5z"/>
<path d="M2570 1505 c0 -5 5 -17 10 -25 5 -8 10 -10 10 -5 0 6 -5 17 -10 25
-5 8 -10 11 -10 5z"/>
<path d="M329 1483 c-13 -16 -12 -17 4 -4 9 7 17 15 17 17 0 8 -8 3 -21 -13z"/>
<path d="M790 1470 c-6 -11 -8 -20 -6 -20 3 0 10 9 16 20 6 11 8 20 6 20 -3 0
-10 -9 -16 -20z"/>
<path d="M2590 1455 c0 -5 5 -17 10 -25 5 -8 10 -10 10 -5 0 6 -5 17 -10 25
-5 8 -10 11 -10 5z"/>
<path d="M3139 1438 c8 -10 10 -18 5 -18 -5 0 27 -34 71 -75 43 -41 81 -72 83
-70 7 6 -51 65 -64 65 -12 0 -66 54 -60 61 2 2 -8 15 -22 29 -14 14 -20 17
-13 8z"/>
<path d="M2730 1361 c0 -6 4 -13 10 -16 6 -3 7 1 4 9 -7 18 -14 21 -14 7z"/>
<path d="M796 1315 c-9 -26 -7 -32 5 -12 6 10 9 21 6 23 -2 3 -7 -2 -11 -11z"/>
<path d="M761 1229 c-12 -29 -20 -54 -18 -56 2 -2 14 20 26 48 12 29 20 54 18
56 -2 2 -14 -20 -26 -48z"/>
<path d="M2770 1275 c0 -5 5 -17 10 -25 5 -8 10 -10 10 -5 0 6 -5 17 -10 25
-5 8 -10 11 -10 5z"/>
<path d="M3318 1275 c-10 -10 16 -37 130 -136 72 -64 102 -85 102 -72 0 10
-16 29 -36 43 -19 14 -44 33 -56 43 -11 9 -26 17 -31 17 -6 0 -7 3 -4 7 12 11
-24 42 -41 36 -12 -5 -14 -2 -8 12 4 11 4 16 0 13 -3 -4 -16 5 -28 18 -12 14
-24 22 -28 19z"/>
<path d="M71 1098 c-39 -40 -71 -77 -71 -83 0 -5 12 4 27 20 15 17 50 54 77
83 73 77 49 63 -33 -20z"/>
<path d="M726 1145 c-9 -26 -7 -32 5 -12 6 10 9 21 6 23 -2 3 -7 -2 -11 -11z"/>
<path d="M636 1125 c-9 -26 -7 -32 5 -12 6 10 9 21 6 23 -2 3 -7 -2 -11 -11z"/>
<path d="M2950 1095 c0 -5 5 -17 10 -25 5 -8 10 -10 10 -5 0 6 -5 17 -10 25
-5 8 -10 11 -10 5z"/>
<path d="M3060 1051 c0 -6 4 -13 10 -16 6 -3 7 1 4 9 -7 18 -14 21 -14 7z"/>
<path d="M525 1039 c-4 -6 -5 -12 -2 -15 2 -3 7 2 10 11 7 17 1 20 -8 4z"/>
<path d="M2976 1037 c3 -10 9 -15 12 -12 3 3 0 11 -7 18 -10 9 -11 8 -5 -6z"/>
<path d="M3080 1011 c0 -6 4 -13 10 -16 6 -3 7 1 4 9 -7 18 -14 21 -14 7z"/>
<path d="M506 993 c-6 -14 -5 -15 5 -6 7 7 10 15 7 18 -3 3 -9 -2 -12 -12z"/>
<path d="M3100 971 c0 -6 4 -13 10 -16 6 -3 7 1 4 9 -7 18 -14 21 -14 7z"/>
<path d="M477 935 c-9 -19 -13 -35 -9 -35 8 0 34 61 29 67 -2 1 -11 -13 -20
-32z"/>
<path d="M3120 933 c0 -6 8 -17 18 -24 16 -13 16 -13 2 6 -8 11 -16 22 -17 24
-2 2 -3 0 -3 -6z"/>
<path d="M3210 921 c0 -6 4 -13 10 -16 6 -3 7 1 4 9 -7 18 -14 21 -14 7z"/>
</g>
</svg>
